<svg width="24" height="24" viewBox="0 0 24 24" fill="none" xmlns="http://www.w3.org/2000/svg">
<g id="icon">
<path id="Vector" d="M12.4797 10.4588L15.6308 13.6099C15.6743 13.6534 15.7085 13.7019 15.7335 13.7555C15.7585 13.8092 15.771 13.8666 15.771 13.9279C15.771 14.0504 15.7296 14.1569 15.6467 14.2472C15.5638 14.3376 15.4546 14.3828 15.3191 14.3828L8.68067 14.3828C8.5451 14.3828 8.4359 14.3372 8.35305 14.2459C8.27018 14.1547 8.22875 14.0482 8.22875 13.9265C8.22875 13.8961 8.27555 13.7905 8.36915 13.6097L11.5201 10.4588C11.5925 10.3864 11.6674 10.3335 11.7447 10.3002C11.822 10.2668 11.9071 10.2502 11.9999 10.2502C12.0927 10.2502 12.1777 10.2668 12.255 10.3002C12.3324 10.3335 12.4072 10.3864 12.4797 10.4588Z" fill="#F1F1F5"/>
</g>
</svg>
