<svg width="24" height="24" viewBox="0 0 24 24" fill="none" xmlns="http://www.w3.org/2000/svg">
<g id="icon">
<path id="Vector" d="M11.5203 14.174L8.3692 11.0229C8.32574 10.9794 8.2915 10.9309 8.2665 10.8773C8.2415 10.8237 8.229 10.7662 8.229 10.7049C8.229 10.5824 8.27044 10.476 8.3533 10.3856C8.43615 10.2952 8.54536 10.25 8.68093 10.25H15.3193C15.4549 10.25 15.5641 10.2956 15.647 10.3869C15.7298 10.4781 15.7713 10.5846 15.7713 10.7063C15.7713 10.7367 15.7245 10.8423 15.6309 11.0231L12.4799 14.174C12.4075 14.2464 12.3326 14.2993 12.2553 14.3327C12.178 14.366 12.0929 14.3827 12.0001 14.3827C11.9073 14.3827 11.8223 14.366 11.745 14.3327C11.6676 14.2993 11.5928 14.2464 11.5203 14.174Z" fill="#9FA6B2"/>
</g>
</svg>
