<svg viewBox="0 0 24 24" fill="currentColor" xmlns="http://www.w3.org/2000/svg">
<path d="M11.5946 12.4057H5.80517C5.69034 12.4057 5.59409 12.3667 5.51642 12.2889C5.43874 12.211 5.3999 12.1145 5.3999 11.9994C5.3999 11.8843 5.43874 11.7881 5.51642 11.7109C5.59409 11.6337 5.69034 11.5951 5.80517 11.5951H11.5946V5.80565C11.5946 5.69083 11.6336 5.59458 11.7114 5.5169C11.7893 5.43923 11.8858 5.40039 12.0009 5.40039C12.116 5.40039 12.2122 5.43923 12.2894 5.5169C12.3666 5.59458 12.4052 5.69083 12.4052 5.80565V11.5951H18.1946C18.3095 11.5951 18.4057 11.6341 18.4834 11.7119C18.5611 11.7898 18.5999 11.8863 18.5999 12.0014C18.5999 12.1165 18.5611 12.2127 18.4834 12.2899C18.4057 12.3671 18.3095 12.4057 18.1946 12.4057H12.4052V18.1951C12.4052 18.31 12.3662 18.4062 12.2884 18.4839C12.2105 18.5616 12.114 18.6004 11.9989 18.6004C11.8838 18.6004 11.7876 18.5616 11.7104 18.4839C11.6332 18.4062 11.5946 18.31 11.5946 18.1951V12.4057Z" fill="currentColor"/>
</svg>
