<svg viewBox="0 0 24 24" fill="none" xmlns="http://www.w3.org/2000/svg">
<path d="M6.03845 17.4999L4.03655 19.5019C3.75193 19.7864 3.42469 19.8509 3.05483 19.6951C2.68494 19.5393 2.5 19.2589 2.5 18.8538V4.3077C2.5 3.80257 2.675 3.375 3.025 3.025C3.375 2.675 3.80257 2.5 4.3077 2.5H19.6923C20.1974 2.5 20.625 2.675 20.975 3.025C21.325 3.375 21.5 3.80257 21.5 4.3077V15.6923C21.5 16.1974 21.325 16.625 20.975 16.9749C20.625 17.325 20.1974 17.4999 19.6923 17.4999H6.03845Z" fill="url(#paint0_linear_262_4142)"/>
<defs>
<linearGradient id="paint0_linear_262_4142" x1="2.5" y1="2.5" x2="21.8779" y2="2.93489" gradientUnits="userSpaceOnUse">
<stop stop-color="#5097FA"/>
<stop offset="1" stop-color="#5363FF"/>
</linearGradient>
</defs>
</svg>
