<svg viewBox="0 0 24 24" fill="none" xmlns="http://www.w3.org/2000/svg">
<path d="M8.03094 9.23368L11.227 3.99529C11.3206 3.84144 11.4352 3.73182 11.5708 3.66643C11.7064 3.60105 11.8495 3.56836 12.0001 3.56836C12.1507 3.56836 12.2939 3.60105 12.4294 3.66643C12.565 3.73182 12.6796 3.84144 12.7732 3.99529L15.9693 9.23368C16.0629 9.38432 16.1097 9.54249 16.1097 9.70821C16.1097 9.87391 16.0712 10.0253 15.9943 10.1625C15.9174 10.2997 15.8116 10.4093 15.677 10.4914C15.5424 10.5734 15.3853 10.6144 15.2058 10.6144H8.79439C8.61417 10.6144 8.45648 10.573 8.32132 10.4902C8.18615 10.4073 8.08102 10.2981 8.00594 10.1625C7.92901 10.0274 7.89054 9.87729 7.89054 9.71216C7.89054 9.54703 7.93734 9.38753 8.03094 9.23368ZM17.5001 21.6144C16.3527 21.6144 15.3799 21.2154 14.5819 20.4173C13.7838 19.6193 13.3848 18.6465 13.3848 17.4991C13.3848 16.3517 13.7838 15.3789 14.5819 14.5808C15.3799 13.7828 16.3527 13.3837 17.5001 13.3837C18.6475 13.3837 19.6203 13.7828 20.4184 14.5808C21.2164 15.3789 21.6155 16.3517 21.6155 17.4991C21.6155 18.6465 21.2164 19.6193 20.4184 20.4173C19.6203 21.2154 18.6475 21.6144 17.5001 21.6144ZM3.38477 20.2103V14.7853C3.38477 14.5291 3.47142 14.3148 3.64472 14.1424C3.818 13.97 4.03273 13.8837 4.28892 13.8837H9.71389C9.97007 13.8837 10.1844 13.9704 10.3568 14.1437C10.5292 14.317 10.6155 14.5317 10.6155 14.7879V20.2129C10.6155 20.469 10.5288 20.6834 10.3555 20.8558C10.1822 21.0282 9.9675 21.1144 9.71132 21.1144H4.28634C4.03016 21.1144 3.81585 21.0278 3.64342 20.8545C3.47098 20.6812 3.38477 20.4665 3.38477 20.2103ZM17.4998 20.1145C18.2321 20.1145 18.8511 19.8617 19.3568 19.3561C19.8626 18.8505 20.1155 18.2316 20.1155 17.4994C20.1155 16.7671 19.8627 16.1481 19.3571 15.6424C18.8515 15.1366 18.2326 14.8837 17.5004 14.8837C16.7682 14.8837 16.1492 15.1365 15.6434 15.6421C15.1376 16.1477 14.8847 16.7666 14.8847 17.4988C14.8847 18.231 15.1375 18.85 15.6431 19.3558C16.1487 19.8616 16.7676 20.1145 17.4998 20.1145ZM4.88472 19.6145H9.11552V15.3837H4.88472V19.6145ZM9.83857 9.11449H14.1617L12.0001 5.63754L9.83857 9.11449Z" fill="#9FA6B2"/>
</svg>
