<svg viewBox="0 0 24 24" fill="currentColor" xmlns="http://www.w3.org/2000/svg">
<path d="M11.5201 14.174L8.36896 11.0229C8.32549 10.9794 8.29126 10.9309 8.26626 10.8773C8.24126 10.8237 8.22876 10.7662 8.22876 10.7049C8.22876 10.5824 8.27019 10.476 8.35306 10.3856C8.43591 10.2952 8.54512 10.25 8.68068 10.25H15.3191C15.4547 10.25 15.5639 10.2956 15.6467 10.3869C15.7296 10.4781 15.771 10.5846 15.771 10.7063C15.771 10.7367 15.7242 10.8423 15.6306 11.0231L12.4797 14.174C12.4073 14.2464 12.3324 14.2993 12.2551 14.3327C12.1777 14.366 12.0927 14.3827 11.9999 14.3827C11.9071 14.3827 11.822 14.366 11.7447 14.3327C11.6674 14.2993 11.5925 14.2464 11.5201 14.174Z" fill="currentColor"/>
</svg>
