<svg viewBox="0 0 24 24" fill="none" xmlns="http://www.w3.org/2000/svg">
<path d="M12.4794 10.4588L15.6306 13.6099C15.674 13.6534 15.7083 13.7019 15.7333 13.7555C15.7583 13.8092 15.7708 13.8666 15.7708 13.9279C15.7708 14.0504 15.7293 14.1569 15.6465 14.2472C15.5636 14.3376 15.4544 14.3828 15.3188 14.3828L8.68043 14.3828C8.54486 14.3828 8.43565 14.3372 8.3528 14.2459C8.26994 14.1547 8.2285 14.0482 8.2285 13.9265C8.2285 13.8961 8.2753 13.7905 8.3689 13.6097L11.5198 10.4588C11.5923 10.3864 11.6671 10.3335 11.7445 10.3002C11.8218 10.2668 11.9068 10.2502 11.9996 10.2502C12.0924 10.2502 12.1775 10.2668 12.2548 10.3002C12.3321 10.3335 12.407 10.3864 12.4794 10.4588Z" fill="#F1F1F5"/>
</svg>
