<svg viewBox="0 0 24 24" fill="currentColor" xmlns="http://www.w3.org/2000/svg">
<path fill-rule="evenodd" clip-rule="evenodd" d="M15.4448 7.92161C14.5233 7.03931 13.2685 6.54915 11.994 6.56875C9.64123 6.56875 7.66096 8.13729 6.93551 10.2744L3.9553 7.96083C5.48462 4.9218 8.58248 3.00034 11.994 3.00034C14.2292 2.98074 16.3859 3.80422 18.0133 5.33353L15.4448 7.92161ZM6.93604 13.726C6.56351 12.6084 6.56351 11.3928 6.93604 10.2752L3.95582 7.96164C2.6815 10.5103 2.68139 13.5098 3.95549 16.0389L3.9553 16.0391C5.48462 19.0781 8.58247 20.9996 11.994 20.9996C14.4192 20.9996 16.4542 20.1997 17.9433 18.8335L17.9548 18.8424C19.6606 17.2543 20.6409 14.9407 20.6409 12.2153C20.6409 11.6075 20.5821 10.9801 20.484 10.3919H11.9944V13.8623H16.8568C16.6607 14.9799 16.0137 15.9602 15.053 16.5876L15.1539 16.666L15.0527 16.5881C14.2488 17.1371 13.2096 17.4508 11.994 17.4508C9.64123 17.4508 7.66096 15.8626 6.93551 13.7451L4.0941 15.9322L6.93604 13.726Z" fill="currentColor"/>
</svg>
