<svg viewBox="0 0 24 24" fill="none" xmlns="http://www.w3.org/2000/svg">
<path fill-rule="evenodd" clip-rule="evenodd" d="M10.0426 18.6431C10.6902 18.7443 11.3446 18.7951 12 18.7948C17.5227 18.7948 22 15.2591 22 10.8974C22 6.53576 17.5227 3 12 3C6.47729 3 2 6.53576 2 10.8974C2 13.7023 3.85181 16.1654 6.64235 17.5665L5.70288 21.1472C5.68985 21.1968 5.69238 21.2492 5.71012 21.2974C5.72786 21.3455 5.75996 21.3871 5.80208 21.4164C5.8442 21.4457 5.8943 21.4614 5.94562 21.4613C5.99693 21.4612 6.04698 21.4453 6.08899 21.4159L10.0426 18.6431Z" fill="#6E6E82"/>
</svg>
