<svg viewBox="0 0 49 41" fill="none" xmlns="http://www.w3.org/2000/svg">
<path fill-rule="evenodd" clip-rule="evenodd" d="M2 0C0.895431 0 0 0.89543 0 2V30.9962C0 32.1007 0.89543 32.9962 2 32.9962H38.4996L47.3652 40.2643C48.018 40.7994 48.9992 40.3351 48.9992 39.491L48.9996 31.0377C48.9999 31.0239 49 31.01 49 30.9962V2C49 0.895431 48.1046 0 47 0H2Z" fill="#6E6E82"/>
<path fill-rule="evenodd" clip-rule="evenodd" d="M10.0485 14.3477C10.6007 14.3477 11.0485 14.7954 11.0485 15.3477V16.2844C11.0485 17.8054 12.1111 19.5405 14.5976 21.0024C17.037 22.4365 20.5335 23.3857 24.4994 23.3857C28.4654 23.3857 31.9619 22.4365 34.4012 21.0024C36.8878 19.5405 37.9504 17.8054 37.9504 16.2844V15.3477C37.9504 14.7954 38.3981 14.3477 38.9504 14.3477H40.7936C41.3458 14.3477 41.7936 14.7954 41.7936 15.3477V16.2844C41.7936 19.755 39.415 22.5389 36.3377 24.3482C33.2133 26.1852 29.0235 27.2592 24.4994 27.2592C19.9754 27.2592 15.7856 26.1852 12.6612 24.3482C9.58392 22.5389 7.20532 19.755 7.20532 16.2844V15.3477C7.20532 14.7954 7.65304 14.3477 8.20532 14.3477H10.0485Z" fill="#17171C"/>
</svg>
