<svg  viewBox="0 0 166 28" fill="none" xmlns="http://www.w3.org/2000/svg">
<path d="M45.5997 20.084C45.4892 20.084 45.3997 19.9945 45.3997 19.884V4.81936C45.3997 4.7089 45.4892 4.61936 45.5997 4.61936H47.6402C47.7107 4.61936 47.7759 4.65642 47.812 4.71692L54.3059 15.6061C54.3854 15.7395 54.2894 15.9086 54.1342 15.9086H53.6034C53.4488 15.9086 53.3527 15.7407 53.4309 15.6074L59.8187 4.71816C59.8546 4.65696 59.9203 4.61936 59.9912 4.61936H62.0311C62.1415 4.61936 62.231 4.70873 62.2311 4.81908L62.2526 19.8838C62.2527 19.9943 62.1631 20.084 62.0526 20.084H59.7463C59.636 20.084 59.5465 19.9947 59.5463 19.8844L59.5251 9.08359C59.5248 8.97298 59.6144 8.8832 59.7251 8.8832H59.7444C59.8996 8.8832 59.9957 9.05241 59.9161 9.18572L54.5225 18.2192C54.4864 18.2796 54.4212 18.3166 54.3508 18.3166H53.3008C53.2309 18.3166 53.1661 18.2801 53.1298 18.2204L47.652 9.1869C47.5711 9.05361 47.6671 8.8832 47.823 8.8832H47.9279C48.0383 8.8832 48.1279 8.97274 48.1279 9.0832V19.884C48.1279 19.9945 48.0383 20.084 47.9279 20.084H45.5997Z" fill="#F1F1F5"/>
<path d="M73.4094 20.305C72.2066 20.305 71.0992 20.1061 70.0871 19.7085C69.0751 19.3108 68.195 18.7585 67.4469 18.0515C66.6989 17.3299 66.1195 16.4903 65.7088 15.533C65.2981 14.5609 65.0928 13.5005 65.0928 12.3517C65.0928 11.2029 65.2981 10.1498 65.7088 9.19249C66.1195 8.22042 66.6989 7.38091 67.4469 6.67395C68.195 5.95227 69.0751 5.3926 70.0871 4.99493C71.0992 4.59727 72.1993 4.39844 73.3874 4.39844C74.5901 4.39844 75.6902 4.59727 76.6876 4.99493C77.6997 5.3926 78.5797 5.95227 79.3278 6.67395C80.0758 7.38091 80.6552 8.22042 81.0659 9.19249C81.4766 10.1498 81.682 11.2029 81.682 12.3517C81.682 13.5005 81.4766 14.5609 81.0659 15.533C80.6552 16.5051 80.0758 17.3446 79.3278 18.0515C78.5797 18.7585 77.6997 19.3108 76.6876 19.7085C75.6902 20.1061 74.5975 20.305 73.4094 20.305ZM73.3874 17.7864C74.1648 17.7864 74.8835 17.6539 75.5435 17.3888C76.2036 17.1237 76.7756 16.7481 77.2596 16.2621C77.7437 15.7613 78.1177 15.1869 78.3817 14.5388C78.6604 13.8761 78.7998 13.147 78.7998 12.3517C78.7998 11.5564 78.6604 10.8347 78.3817 10.1866C78.1177 9.52387 77.7437 8.94947 77.2596 8.46344C76.7756 7.96268 76.2036 7.57974 75.5435 7.31463C74.8835 7.04953 74.1648 6.91697 73.3874 6.91697C72.61 6.91697 71.8913 7.04953 71.2312 7.31463C70.5858 7.57974 70.0138 7.96268 69.5151 8.46344C69.0311 8.94947 68.6497 9.52387 68.371 10.1866C68.107 10.8347 67.975 11.5564 67.975 12.3517C67.975 13.1323 68.107 13.854 68.371 14.5168C68.6497 15.1795 69.0311 15.7613 69.5151 16.2621C69.9991 16.7481 70.5712 17.1237 71.2312 17.3888C71.8913 17.6539 72.61 17.7864 73.3874 17.7864Z" fill="#F1F1F5"/>
<path d="M91.6882 20.305C90.4854 20.305 89.378 20.1135 88.366 19.7306C87.3686 19.3329 86.4958 18.7806 85.7478 18.0736C84.9997 17.3519 84.4203 16.5051 84.0097 15.533C83.599 14.5609 83.3936 13.5005 83.3936 12.3517C83.3936 11.2029 83.599 10.1425 84.0097 9.1704C84.4203 8.19833 84.9997 7.35882 85.7478 6.65186C86.5105 5.93018 87.3979 5.37787 88.41 4.99493C89.422 4.59727 90.5294 4.39844 91.7322 4.39844C93.0376 4.39844 94.211 4.612 95.2524 5.03912C96.2477 5.44163 97.0931 6.02074 97.7888 6.77643C97.8605 6.85436 97.8555 6.97487 97.7799 7.049L96.2522 8.54555C96.1738 8.6224 96.0482 8.62135 95.9686 8.54574C95.4068 8.01242 94.8014 7.61678 94.1524 7.35882C93.463 7.06425 92.7003 6.91697 91.8642 6.91697C91.0575 6.91697 90.3094 7.04953 89.6201 7.31463C88.9307 7.57974 88.3366 7.95531 87.8379 8.44135C87.3392 8.92738 86.9505 9.50178 86.6718 10.1646C86.4078 10.8273 86.2758 11.5564 86.2758 12.3517C86.2758 13.1323 86.4078 13.854 86.6718 14.5168C86.9505 15.1795 87.3392 15.7613 87.8379 16.2621C88.3366 16.7481 88.9233 17.1237 89.598 17.3888C90.2728 17.6539 91.0208 17.7864 91.8422 17.7864C92.6049 17.7864 93.3383 17.6686 94.0424 17.433C94.7007 17.2036 95.3282 16.8384 95.925 16.3372C96.0143 16.2622 96.1488 16.2751 96.2193 16.3679L97.5989 18.1837C97.6644 18.27 97.6495 18.393 97.5634 18.4588C96.7917 19.048 95.9041 19.5014 94.9004 19.8189C93.8443 20.143 92.7736 20.305 91.6882 20.305ZM95.1829 17.9871C95.0841 17.9734 95.0104 17.8888 95.0104 17.789V12.375C95.0104 12.2645 95.1 12.175 95.2104 12.175H97.5166C97.6271 12.175 97.7166 12.2645 97.7166 12.375V18.1091C97.7166 18.2305 97.6094 18.3239 97.4891 18.3072L95.1829 17.9871Z" fill="#F1F1F5"/>
<path d="M99.3997 20.084C99.2547 20.084 99.1578 19.9346 99.2171 19.8022L105.968 4.73757C106.001 4.66565 106.072 4.61936 106.151 4.61936H108.708C108.787 4.61936 108.858 4.66555 108.891 4.73735L115.663 19.802C115.723 19.9344 115.626 20.084 115.481 20.084H112.93C112.85 20.084 112.777 20.0363 112.746 19.9627L106.955 6.42239C106.898 6.29043 106.995 6.14374 107.138 6.14374H107.677C107.82 6.14374 107.917 6.29021 107.861 6.42214L102.091 19.9624C102.059 20.0362 101.987 20.084 101.907 20.084H99.3997ZM102.561 16.5051C102.424 16.5051 102.327 16.3702 102.372 16.2404L103.005 14.387C103.033 14.306 103.109 14.2516 103.194 14.2516H111.225C111.31 14.2516 111.386 14.306 111.414 14.387L112.047 16.2404C112.092 16.3702 111.995 16.5051 111.858 16.5051H102.561Z" fill="#F1F1F5"/>
<path fill-rule="evenodd" clip-rule="evenodd" d="M2 0C0.895431 0 0 0.895428 0 2V21.0966C0 22.2012 0.895431 23.0966 2 23.0966H26.7159L32.3646 27.7679C33.0166 28.307 34.0019 27.8433 34.0019 26.9973L34.0022 21.1296C34.0023 21.1186 34.0024 21.1076 34.0024 21.0966V2C34.0024 0.895431 33.107 0 32.0024 0H2ZM6.66686 10.043C7.21914 10.043 7.66686 10.4907 7.66686 11.043V11.3986C7.66686 12.4633 8.40427 13.6778 10.1297 14.7011C11.8224 15.705 14.2488 16.3694 17.0009 16.3694C19.7529 16.3694 22.1793 15.705 23.872 14.7011C25.5974 13.6778 26.3349 12.4633 26.3349 11.3986V11.043C26.3349 10.4907 26.7826 10.043 27.3349 10.043H28.0017C28.554 10.043 29.0017 10.4907 29.0017 11.043V11.3986C29.0017 13.828 27.3511 15.7767 25.2157 17.0431C23.0476 18.329 20.1402 19.0808 17.0009 19.0808C13.8615 19.0808 10.9541 18.329 8.78597 17.0431C6.65058 15.7767 5 13.828 5 11.3986V11.043C5 10.4907 5.44772 10.043 6 10.043H6.66686Z" fill="url(#paint0_linear_149_5572)"/>
<path d="M118.23 20.084C118.12 20.084 118.03 19.9945 118.03 19.884V18.2332C118.03 18.1872 118.046 18.1425 118.075 18.1068L127.738 6.25758C127.839 6.13359 128.038 6.17262 128.084 6.32565L128.226 6.7912C128.265 6.91971 128.169 7.04953 128.035 7.04953H118.384C118.274 7.04953 118.184 6.95998 118.184 6.84953V4.81936C118.184 4.7089 118.274 4.61936 118.384 4.61936H130.679C130.79 4.61936 130.879 4.7089 130.879 4.81936V6.47019C130.879 6.51625 130.863 6.56089 130.834 6.59659L121.166 18.4522C121.066 18.5749 120.87 18.5382 120.821 18.3876L120.668 17.9157C120.626 17.7865 120.722 17.6539 120.858 17.6539H130.965C131.076 17.6539 131.165 17.7434 131.165 17.8539V19.884C131.165 19.9945 131.076 20.084 130.965 20.084H118.23Z" fill="url(#paint1_linear_149_5572)"/>
<path d="M140.61 20.305C139.407 20.305 138.3 20.1061 137.288 19.7085C136.276 19.3108 135.396 18.7585 134.647 18.0515C133.899 17.3299 133.32 16.4903 132.909 15.533C132.499 14.5609 132.293 13.5005 132.293 12.3517C132.293 11.2029 132.499 10.1498 132.909 9.19249C133.32 8.22042 133.899 7.38091 134.647 6.67395C135.396 5.95227 136.276 5.3926 137.288 4.99493C138.3 4.59727 139.4 4.39844 140.588 4.39844C141.791 4.39844 142.891 4.59727 143.888 4.99493C144.9 5.3926 145.78 5.95227 146.528 6.67395C147.276 7.38091 147.856 8.22042 148.266 9.19249C148.677 10.1498 148.882 11.2029 148.882 12.3517C148.882 13.5005 148.677 14.5609 148.266 15.533C147.856 16.5051 147.276 17.3446 146.528 18.0515C145.78 18.7585 144.9 19.3108 143.888 19.7085C142.891 20.1061 141.798 20.305 140.61 20.305ZM140.588 17.7864C141.365 17.7864 142.084 17.6539 142.744 17.3888C143.404 17.1237 143.976 16.7481 144.46 16.2621C144.944 15.7613 145.318 15.1869 145.582 14.5388C145.861 13.8761 146 13.147 146 12.3517C146 11.5564 145.861 10.8347 145.582 10.1866C145.318 9.52387 144.944 8.94947 144.46 8.46344C143.976 7.96268 143.404 7.57974 142.744 7.31463C142.084 7.04953 141.365 6.91697 140.588 6.91697C139.811 6.91697 139.092 7.04953 138.432 7.31463C137.786 7.57974 137.214 7.96268 136.716 8.46344C136.232 8.94947 135.85 9.52387 135.572 10.1866C135.308 10.8347 135.176 11.5564 135.176 12.3517C135.176 13.1323 135.308 13.854 135.572 14.5168C135.85 15.1795 136.232 15.7613 136.716 16.2621C137.2 16.7481 137.772 17.1237 138.432 17.3888C139.092 17.6539 139.811 17.7864 140.588 17.7864Z" fill="url(#paint2_linear_149_5572)"/>
<path d="M149.61 20.084C149.465 20.084 149.368 19.9346 149.427 19.8022L156.179 4.73757C156.211 4.66565 156.282 4.61936 156.361 4.61936H158.919C158.997 4.61936 159.069 4.66555 159.101 4.73735L165.874 19.802C165.933 19.9344 165.836 20.084 165.691 20.084H163.14C163.06 20.084 162.988 20.0363 162.956 19.9627L157.165 6.42239C157.108 6.29043 157.205 6.14374 157.349 6.14374H157.887C158.031 6.14374 158.127 6.29021 158.071 6.42214L152.301 19.9624C152.27 20.0362 152.197 20.084 152.117 20.084H149.61ZM152.771 16.5051C152.634 16.5051 152.538 16.3702 152.582 16.2404L153.215 14.387C153.243 14.306 153.319 14.2516 153.404 14.2516H161.435C161.521 14.2516 161.597 14.306 161.624 14.387L162.258 16.2404C162.302 16.3702 162.206 16.5051 162.068 16.5051H152.771Z" fill="url(#paint3_linear_149_5572)"/>
<defs>
<linearGradient id="paint0_linear_149_5572" x1="0" y1="0" x2="34.675" y2="0.859382" gradientUnits="userSpaceOnUse">
<stop stop-color="#5097FA"/>
<stop offset="1" stop-color="#5363FF"/>
</linearGradient>
<linearGradient id="paint1_linear_149_5572" x1="118.03" y1="4.39844" x2="166.795" y2="7.39969" gradientUnits="userSpaceOnUse">
<stop stop-color="#5097FA"/>
<stop offset="1" stop-color="#5363FF"/>
</linearGradient>
<linearGradient id="paint2_linear_149_5572" x1="118.03" y1="4.39844" x2="166.795" y2="7.39969" gradientUnits="userSpaceOnUse">
<stop stop-color="#5097FA"/>
<stop offset="1" stop-color="#5363FF"/>
</linearGradient>
<linearGradient id="paint3_linear_149_5572" x1="118.03" y1="4.39844" x2="166.795" y2="7.39969" gradientUnits="userSpaceOnUse">
<stop stop-color="#5097FA"/>
<stop offset="1" stop-color="#5363FF"/>
</linearGradient>
</defs>
</svg>
