<svg viewBox="0 0 24 24" fill="none" xmlns="http://www.w3.org/2000/svg">
<path d="M5.11529 20.4998C4.61818 20.4998 4.19262 20.3228 3.83862 19.9688C3.48462 19.6148 3.30762 19.1892 3.30762 18.6921V5.30756C3.30762 4.81044 3.48462 4.38488 3.83862 4.03088C4.19262 3.67687 4.61818 3.49986 5.11529 3.49986H13.0576C13.2701 3.49986 13.4482 3.57177 13.5919 3.71558C13.7357 3.8594 13.8076 4.0376 13.8076 4.25018C13.8076 4.46278 13.7357 4.64088 13.5919 4.78446C13.4482 4.92804 13.2701 4.99983 13.0576 4.99983H5.11529C5.02554 4.99983 4.95182 5.02868 4.89412 5.08638C4.83642 5.14408 4.80757 5.21781 4.80757 5.30756V18.6921C4.80757 18.7819 4.83642 18.8556 4.89412 18.9133C4.95182 18.971 5.02554 18.9998 5.11529 18.9998H18.4999C18.5896 18.9998 18.6633 18.971 18.721 18.9133C18.7787 18.8556 18.8076 18.7819 18.8076 18.6921V10.7498C18.8076 10.5373 18.8795 10.3592 19.0233 10.2155C19.1671 10.0717 19.3453 9.99983 19.5579 9.99983C19.7705 9.99983 19.9486 10.0717 20.0921 10.2155C20.2357 10.3592 20.3075 10.5373 20.3075 10.7498V18.6921C20.3075 19.1892 20.1305 19.6148 19.7765 19.9688C19.4225 20.3228 18.997 20.4998 18.4999 20.4998H5.11529ZM17.1922 6.61518H15.9422C15.7297 6.61518 15.5516 6.54328 15.4078 6.39948C15.2641 6.25567 15.1922 6.07747 15.1922 5.86488C15.1922 5.65228 15.2641 5.47419 15.4078 5.33061C15.5516 5.18703 15.7297 5.11523 15.9422 5.11523H17.1922V3.86521C17.1922 3.65271 17.2641 3.47458 17.4079 3.33083C17.5517 3.1871 17.7299 3.11523 17.9425 3.11523C18.1551 3.11523 18.3332 3.1871 18.4768 3.33083C18.6204 3.47458 18.6922 3.65271 18.6922 3.86521V5.11523H19.9422C20.1547 5.11523 20.3328 5.18713 20.4766 5.33093C20.6203 5.47475 20.6922 5.65295 20.6922 5.86553C20.6922 6.07813 20.6203 6.25623 20.4766 6.39981C20.3328 6.54339 20.1547 6.61518 19.9422 6.61518H18.6922V7.86521C18.6922 8.07771 18.6203 8.25583 18.4765 8.39958C18.3327 8.54332 18.1545 8.61518 17.9419 8.61518C17.7293 8.61518 17.5512 8.54332 17.4076 8.39958C17.264 8.25583 17.1922 8.07771 17.1922 7.86521V6.61518ZM11.0383 16.0191L9.39989 13.9191C9.30631 13.805 9.1874 13.7479 9.04317 13.7479C8.89893 13.7479 8.78003 13.8082 8.68644 13.9287L7.10954 16.0267C6.98903 16.1806 6.97316 16.3396 7.06194 16.5037C7.15073 16.6678 7.2839 16.7498 7.46147 16.7498H16.2306C16.4082 16.7498 16.5413 16.6678 16.6301 16.5037C16.7189 16.3396 16.7062 16.1806 16.5921 16.0267L14.2075 12.8326C14.114 12.712 13.9935 12.6518 13.846 12.6518C13.6986 12.6518 13.5778 12.7129 13.4838 12.835L11.0383 16.0191Z" fill="#6E6E82"/>
</svg>
