<svg viewBox="0 0 24 24" fill="none" xmlns="http://www.w3.org/2000/svg">
<path d="M11.9904 19.7099C11.7763 19.7099 11.5612 19.6715 11.3452 19.5945C11.1291 19.5176 10.9391 19.3971 10.775 19.233L9.33848 17.9273C7.56539 16.3106 5.98238 14.7225 4.58943 13.1628C3.19648 11.6032 2.5 9.9324 2.5 8.15037C2.5 6.73115 2.97852 5.54302 3.93558 4.58597C4.89263 3.62892 6.08076 3.15039 7.49998 3.15039C8.30638 3.15039 9.10285 3.33629 9.8894 3.70809C10.6759 4.07989 11.3795 4.68374 12 5.51964C12.6205 4.68374 13.324 4.07989 14.1105 3.70809C14.8971 3.33629 15.6936 3.15039 16.5 3.15039C17.9192 3.15039 19.1073 3.62892 20.0644 4.58597C21.0214 5.54302 21.5 6.73115 21.5 8.15037C21.5 9.95163 20.7916 11.6411 19.375 13.2186C17.9583 14.7962 16.3788 16.3709 14.6365 17.9426L13.2154 19.233C13.0513 19.3971 12.8596 19.5176 12.6404 19.5945C12.4211 19.6715 12.2045 19.7099 11.9904 19.7099Z" fill="currentColor"/>
</svg>
