<svg viewBox="0 0 24 24" fill="none" xmlns="http://www.w3.org/2000/svg">
<path d="M11 17.75C8.83716 17.75 7.00479 16.999 5.50287 15.4971C4.00096 13.9952 3.25 12.1628 3.25 9.99998C3.25 7.83716 4.00096 6.00479 5.50287 4.50288C7.00479 3.00096 8.83716 2.25 11 2.25C13.1628 2.25 14.9952 3.00096 16.4971 4.50288C17.999 6.00479 18.75 7.83716 18.75 9.99998C18.75 10.959 18.5951 11.8413 18.2855 12.6471C17.9759 13.4529 17.5384 14.2102 16.973 14.9192L21.4154 19.3616C21.5602 19.5064 21.6311 19.6821 21.6279 19.8885C21.6247 20.0949 21.5538 20.2705 21.4154 20.4154C21.2705 20.5602 21.0933 20.6327 20.8836 20.6327C20.674 20.6327 20.4968 20.5602 20.3519 20.4154L15.9096 15.973C15.2006 16.5384 14.4448 16.9759 13.6423 17.2855C12.8397 17.5951 11.959 17.75 11 17.75ZM11 16.25C12.7307 16.25 14.2051 15.641 15.4231 14.4231C16.641 13.2051 17.25 11.7307 17.25 9.99998C17.25 8.26921 16.641 6.79484 15.4231 5.57688C14.2051 4.35893 12.7307 3.74995 11 3.74995C9.26921 3.74995 7.79484 4.35893 6.57687 5.57688C5.35892 6.79484 4.74995 8.26921 4.74995 9.99998C4.74995 11.7307 5.35892 13.2051 6.57687 14.4231C7.79484 15.641 9.26921 16.25 11 16.25Z" fill="currentColor"/>
</svg>
