<svg viewBox="0 0 24 24" fill="currentColor" xmlns="http://www.w3.org/2000/svg">
<path d="M12 17.8206L6.94295 20.8582C6.75464 20.9678 6.56592 21.0138 6.37678 20.9964C6.18763 20.979 6.01639 20.9155 5.86307 20.8059C5.70977 20.6964 5.59146 20.5532 5.50813 20.3764C5.42479 20.1997 5.41145 20.0042 5.46813 19.7901L6.81049 14.0709L2.3459 10.2215C2.17925 10.0771 2.07302 9.90987 2.0272 9.71982C1.98138 9.52975 1.99345 9.34509 2.06343 9.16583C2.13343 8.98656 2.23426 8.84007 2.36592 8.72637C2.49757 8.61267 2.67755 8.53839 2.90586 8.50354L8.79782 7.99063L11.0851 2.59008C11.1684 2.38924 11.2947 2.24068 11.4638 2.1444C11.633 2.04813 11.8117 2 12 2C12.1883 2 12.367 2.04813 12.5362 2.1444C12.7053 2.24068 12.8316 2.38924 12.9149 2.59008L15.2022 7.99063L21.0941 8.50354C21.3224 8.53839 21.5024 8.61267 21.6341 8.72637C21.7657 8.84007 21.8666 8.98656 21.9366 9.16583C22.0065 9.34509 22.0186 9.52975 21.9728 9.71982C21.927 9.90987 21.8207 10.0771 21.6541 10.2215L17.1895 14.0709L18.5319 19.7901C18.5885 20.0042 18.5752 20.1997 18.4919 20.3764C18.4085 20.5532 18.2902 20.6964 18.1369 20.8059C17.9836 20.9155 17.8124 20.979 17.6232 20.9964C17.4341 21.0138 17.2454 20.9678 17.057 20.8582L12 17.8206Z" fill="currentColor"/>
</svg>
