<svg viewBox="0 0 24 24" fill="none" xmlns="http://www.w3.org/2000/svg">
<path d="M20.6923 8.49965C21.1679 8.49965 21.5881 8.68202 21.9528 9.04677C22.3176 9.41151 22.5 9.8317 22.5 10.3073V11.9227C22.5 12.0276 22.4865 12.1401 22.4596 12.2601C22.4326 12.38 22.4025 12.4919 22.3692 12.5958L19.5034 19.3584C19.3601 19.6782 19.1198 19.9483 18.7827 20.1688C18.4455 20.3893 18.0937 20.4996 17.7272 20.4996H7.21153V8.49965L13.0288 2.73237C13.2275 2.53366 13.4577 2.41506 13.7192 2.3766C13.9807 2.33813 14.2314 2.38301 14.4711 2.51122C14.7108 2.63942 14.8865 2.82146 14.998 3.05735C15.1096 3.29325 15.1333 3.53747 15.0692 3.79002L13.9923 8.49965H20.6923ZM8.7115 9.1381V18.9996H17.7307C17.8012 18.9996 17.8734 18.9804 17.9471 18.9419C18.0208 18.9035 18.0769 18.8393 18.1154 18.7496L21 11.9996V10.3073C21 10.2176 20.9711 10.1439 20.9134 10.0862C20.8557 10.0285 20.782 9.99962 20.6923 9.99962H12.0961L13.35 4.51885L8.7115 9.1381ZM4.3077 20.4996C3.81058 20.4996 3.38503 20.3226 3.03102 19.9686C2.67701 19.6146 2.5 19.189 2.5 18.6919V10.3073C2.5 9.81023 2.67701 9.38467 3.03102 9.03067C3.38503 8.67666 3.81058 8.49965 4.3077 8.49965H7.21153V9.99962H4.3077C4.21795 9.99962 4.14423 10.0285 4.08653 10.0862C4.02883 10.1439 3.99998 10.2176 3.99998 10.3073V18.6919C3.99998 18.7816 4.02883 18.8554 4.08653 18.9131C4.14423 18.9708 4.21795 18.9996 4.3077 18.9996H7.21153V20.4996H4.3077Z" fill="#9FA6B2"/>
</svg>
