<svg viewBox="0 0 24 24" fill="none" xmlns="http://www.w3.org/2000/svg">
<path d="M20.6923 8.49954C21.1679 8.49954 21.5881 8.68192 21.9528 9.04667C22.3176 9.4114 22.5 9.83159 22.5 10.3072V11.9226C22.5 12.0264 22.4891 12.1386 22.4673 12.2591C22.4455 12.3796 22.4128 12.4918 22.3692 12.5957L19.5038 19.3572C19.3602 19.6777 19.1198 19.9482 18.7827 20.1687C18.4455 20.3892 18.0948 20.4995 17.7307 20.4995H9.63458C9.13586 20.4995 8.7099 20.3229 8.3567 19.9697C8.00348 19.6165 7.82688 19.1905 7.82688 18.6918V9.24762C7.82688 9.0066 7.87623 8.77487 7.97495 8.55244C8.07367 8.33001 8.20508 8.13674 8.3692 7.97264L13.6596 2.71687C13.8583 2.52842 14.0884 2.41239 14.3499 2.36879C14.6115 2.32521 14.8621 2.36432 15.1019 2.48612C15.3416 2.6079 15.5147 2.78674 15.6211 3.02264C15.7275 3.25852 15.7486 3.50916 15.6845 3.77454L14.6076 8.49954H20.6923ZM4.3077 20.4995C3.80898 20.4995 3.38303 20.3229 3.02983 19.9697C2.67661 19.6165 2.5 19.1905 2.5 18.6918V10.3072C2.5 9.80852 2.67661 9.38257 3.02983 9.02937C3.38303 8.67615 3.80898 8.49954 4.3077 8.49954H4.51925C5.01797 8.49954 5.44393 8.67615 5.79713 9.02937C6.15033 9.38257 6.32693 9.80852 6.32693 10.3072V18.7014C6.32693 19.2001 6.15033 19.6245 5.79713 19.9745C5.44393 20.3245 5.01797 20.4995 4.51925 20.4995H4.3077Z" fill="url(#paint0_linear_149_5546)"/>
<defs>
<linearGradient id="paint0_linear_149_5546" x1="2.5" y1="2.35156" x2="22.8978" y2="2.81033" gradientUnits="userSpaceOnUse">
<stop stop-color="#5097FA"/>
<stop offset="1" stop-color="#5363FF"/>
</linearGradient>
</defs>
</svg>
